<svg width="16" height="16" viewBox="0 0 16 16" fill="none" xmlns="http://www.w3.org/2000/svg">
<path d="M9.75 6V9.5M8 7.75H11.5" stroke="#1E1E1E" stroke-linecap="round" stroke-linejoin="round"/>
<path d="M1 1H3.54545L5.25091 9.92667C5.3091 10.2336 5.46849 10.5093 5.70117 10.7055C5.93384 10.9018 6.22499 11.006 6.52364 11H12.7091C13.0077 11.006 13.2989 10.9018 13.5316 10.7055C13.7642 10.5093 13.9236 10.2336 13.9818 9.92667L15 4.33333H4.18182M6.72727 14.3333C6.72727 14.7015 6.44236 15 6.09091 15C5.73946 15 5.45455 14.7015 5.45455 14.3333C5.45455 13.9651 5.73946 13.6667 6.09091 13.6667C6.44236 13.6667 6.72727 13.9651 6.72727 14.3333ZM13.7273 14.3333C13.7273 14.7015 13.4424 15 13.0909 15C12.7395 15 12.4545 14.7015 12.4545 14.3333C12.4545 13.9651 12.7395 13.6667 13.0909 13.6667C13.4424 13.6667 13.7273 13.9651 13.7273 14.3333Z" stroke="#1E1E1E" stroke-linecap="round" stroke-linejoin="round"/>
</svg>
