<svg width="19" height="18" viewBox="0 0 19 18" fill="none" xmlns="http://www.w3.org/2000/svg">
<path d="M1 1H4.04762L6.08952 11.2019C6.1592 11.5527 6.35003 11.8678 6.62861 12.092C6.90719 12.3163 7.25577 12.4354 7.61333 12.4286H15.019C15.3766 12.4354 15.7252 12.3163 16.0038 12.092C16.2824 11.8678 16.4732 11.5527 16.5429 11.2019L17.7619 4.80952H4.80952M7.85714 16.2381C7.85714 16.6589 7.51603 17 7.09524 17C6.67445 17 6.33333 16.6589 6.33333 16.2381C6.33333 15.8173 6.67445 15.4762 7.09524 15.4762C7.51603 15.4762 7.85714 15.8173 7.85714 16.2381ZM16.2381 16.2381C16.2381 16.6589 15.897 17 15.4762 17C15.0554 17 14.7143 16.6589 14.7143 16.2381C14.7143 15.8173 15.0554 15.4762 15.4762 15.4762C15.897 15.4762 16.2381 15.8173 16.2381 16.2381Z" stroke="#1E1E1E" stroke-width="2" stroke-linecap="round" stroke-linejoin="round"/>
</svg>
